<?xml version="1.0" encoding="UTF-8" standalone="no"?>
<!DOCTYPE svg PUBLIC "-//W3C//DTD SVG 1.1//EN"
 "http://www.w3.org/Graphics/SVG/1.1/DTD/svg11.dtd">
<!-- Generated by graphviz version 2.43.0 (0)
 -->
<!-- Title: %3 Pages: 1 -->
<svg width="1935pt" height="238pt"
 viewBox="0.00 0.00 1935.00 237.74" xmlns="http://www.w3.org/2000/svg" xmlns:xlink="http://www.w3.org/1999/xlink">
<g id="graph0" class="graph" transform="scale(1 1) rotate(0) translate(36 201.74)">
<title>%3</title>
<polygon fill="dimgray" stroke="transparent" points="-36,36 -36,-201.74 1899,-201.74 1899,36 -36,36"/>
<text text-anchor="middle" x="931.5" y="-150.54" font-family="Helvetica,sans-Serif" font-size="14.00">Sweep&#39;s Plan &amp; Progress</text>
<!-- start -->
<g id="node1" class="node">
<title>start</title>
</g>
<!-- fbb23248&#45;3103&#45;4e76&#45;9fe3&#45;e2e6869438d1 -->
<g id="node3" class="node">
<title>fbb23248&#45;3103&#45;4e76&#45;9fe3&#45;e2e6869438d1</title>
<ellipse fill="#0ee832" stroke="black" cx="223.5" cy="-99.87" rx="105.22" ry="26.74"/>
<text text-anchor="middle" x="223.5" y="-103.67" font-family="Helvetica,sans-Serif" font-size="14.00">✓ Modify</text>
<text text-anchor="middle" x="223.5" y="-88.67" font-family="Helvetica,sans-Serif" font-size="14.00">cognosis/uutils_.py</text>
</g>
<!-- start&#45;&gt;fbb23248&#45;3103&#45;4e76&#45;9fe3&#45;e2e6869438d1 -->
<g id="edge10" class="edge">
<title>start&#45;&gt;fbb23248&#45;3103&#45;4e76&#45;9fe3&#45;e2e6869438d1</title>
<path fill="none" stroke="black" d="M67.2,-99.87C70.69,-99.87 86.91,-99.87 107.67,-99.87"/>
<polygon fill="black" stroke="black" points="107.84,-103.37 117.84,-99.87 107.84,-96.37 107.84,-103.37"/>
<text text-anchor="middle" x="92.57" y="-106.67" font-family="Helvetica,sans-Serif" font-size="14.00">Start</text>
</g>
<!-- end -->
<g id="node2" class="node">
<title>end</title>
</g>
<!-- bfdd9c50&#45;e802&#45;42a7&#45;8ce0&#45;a362ed6f55be -->
<g id="node4" class="node">
<title>bfdd9c50&#45;e802&#45;42a7&#45;8ce0&#45;a362ed6f55be</title>
<ellipse fill="#0ee832" stroke="black" cx="546.5" cy="-99.87" rx="128.89" ry="26.74"/>
<text text-anchor="middle" x="546.5" y="-103.67" font-family="Helvetica,sans-Serif" font-size="14.00">✓ Modify</text>
<text text-anchor="middle" x="546.5" y="-88.67" font-family="Helvetica,sans-Serif" font-size="14.00">cognosis/test_uutils_.py</text>
</g>
<!-- fbb23248&#45;3103&#45;4e76&#45;9fe3&#45;e2e6869438d1&#45;&gt;bfdd9c50&#45;e802&#45;42a7&#45;8ce0&#45;a362ed6f55be -->
<g id="edge2" class="edge">
<title>fbb23248&#45;3103&#45;4e76&#45;9fe3&#45;e2e6869438d1&#45;&gt;bfdd9c50&#45;e802&#45;42a7&#45;8ce0&#45;a362ed6f55be</title>
<path fill="none" stroke="black" d="M329.17,-99.87C355.27,-99.87 381.36,-99.87 407.46,-99.87"/>
<polygon fill="black" stroke="black" points="407.46,-103.37 417.46,-99.87 407.46,-96.37 407.46,-103.37"/>
</g>
<!-- 1e9df3c3&#45;2c3c&#45;497b&#45;aeea&#45;c8ad5fbee864 -->
<g id="node8" class="node">
<title>1e9df3c3&#45;2c3c&#45;497b&#45;aeea&#45;c8ad5fbee864</title>
<polygon fill="#0ee832" stroke="black" points="341,-36 0,-36 0,0 341,0 341,-36"/>
<text text-anchor="middle" x="170.5" y="-14.3" font-family="Helvetica,sans-Serif" font-size="14.00">✓ Run GitHub Actions for `cognosis/uutils_.py`</text>
</g>
<!-- fbb23248&#45;3103&#45;4e76&#45;9fe3&#45;e2e6869438d1&#45;&gt;1e9df3c3&#45;2c3c&#45;497b&#45;aeea&#45;c8ad5fbee864 -->
<g id="edge1" class="edge">
<title>fbb23248&#45;3103&#45;4e76&#45;9fe3&#45;e2e6869438d1&#45;&gt;1e9df3c3&#45;2c3c&#45;497b&#45;aeea&#45;c8ad5fbee864</title>
<path fill="none" stroke="black" stroke-dasharray="5,2" d="M206.44,-73.16C200.45,-64.13 193.71,-53.98 187.71,-44.94"/>
<polygon fill="black" stroke="black" points="190.45,-42.73 182,-36.34 184.62,-46.6 190.45,-42.73"/>
</g>
<!-- 89d1e7a2&#45;8b05&#45;4f58&#45;842a&#45;eddc77bc71f5 -->
<g id="node5" class="node">
<title>89d1e7a2&#45;8b05&#45;4f58&#45;842a&#45;eddc77bc71f5</title>
<ellipse fill="#0ee832" stroke="black" cx="918.5" cy="-99.87" rx="97.66" ry="26.74"/>
<text text-anchor="middle" x="918.5" y="-103.67" font-family="Helvetica,sans-Serif" font-size="14.00">✓ Modify</text>
<text text-anchor="middle" x="918.5" y="-88.67" font-family="Helvetica,sans-Serif" font-size="14.00">cognosis/main.py</text>
</g>
<!-- bfdd9c50&#45;e802&#45;42a7&#45;8ce0&#45;a362ed6f55be&#45;&gt;89d1e7a2&#45;8b05&#45;4f58&#45;842a&#45;eddc77bc71f5 -->
<g id="edge4" class="edge">
<title>bfdd9c50&#45;e802&#45;42a7&#45;8ce0&#45;a362ed6f55be&#45;&gt;89d1e7a2&#45;8b05&#45;4f58&#45;842a&#45;eddc77bc71f5</title>
<path fill="none" stroke="black" d="M675.46,-99.87C720.48,-99.87 765.49,-99.87 810.5,-99.87"/>
<polygon fill="black" stroke="black" points="810.72,-103.37 820.72,-99.87 810.72,-96.37 810.72,-103.37"/>
</g>
<!-- 6abc8250&#45;88d9&#45;42b3&#45;9af6&#45;9c754920b3be -->
<g id="node9" class="node">
<title>6abc8250&#45;88d9&#45;42b3&#45;9af6&#45;9c754920b3be</title>
<polygon fill="#0ee832" stroke="black" points="733.5,-36 359.5,-36 359.5,0 733.5,0 733.5,-36"/>
<text text-anchor="middle" x="546.5" y="-14.3" font-family="Helvetica,sans-Serif" font-size="14.00">✓ Run GitHub Actions for `cognosis/test_uutils_.py`</text>
</g>
<!-- bfdd9c50&#45;e802&#45;42a7&#45;8ce0&#45;a362ed6f55be&#45;&gt;6abc8250&#45;88d9&#45;42b3&#45;9af6&#45;9c754920b3be -->
<g id="edge3" class="edge">
<title>bfdd9c50&#45;e802&#45;42a7&#45;8ce0&#45;a362ed6f55be&#45;&gt;6abc8250&#45;88d9&#45;42b3&#45;9af6&#45;9c754920b3be</title>
<path fill="none" stroke="black" stroke-dasharray="5,2" d="M546.5,-72.72C546.5,-64.27 546.5,-54.89 546.5,-46.36"/>
<polygon fill="black" stroke="black" points="550,-46.15 546.5,-36.15 543,-46.15 550,-46.15"/>
</g>
<!-- f3fec215&#45;5958&#45;446b&#45;87f2&#45;c2ff55c63fdc -->
<g id="node6" class="node">
<title>f3fec215&#45;5958&#45;446b&#45;87f2&#45;c2ff55c63fdc</title>
<ellipse fill="white" stroke="black" cx="1248.5" cy="-99.87" rx="70.01" ry="26.74"/>
<text text-anchor="middle" x="1248.5" y="-103.67" font-family="Helvetica,sans-Serif" font-size="14.00">▶ Modify</text>
<text text-anchor="middle" x="1248.5" y="-88.67" font-family="Helvetica,sans-Serif" font-size="14.00">sweep.yaml</text>
</g>
<!-- 89d1e7a2&#45;8b05&#45;4f58&#45;842a&#45;eddc77bc71f5&#45;&gt;f3fec215&#45;5958&#45;446b&#45;87f2&#45;c2ff55c63fdc -->
<g id="edge6" class="edge">
<title>89d1e7a2&#45;8b05&#45;4f58&#45;842a&#45;eddc77bc71f5&#45;&gt;f3fec215&#45;5958&#45;446b&#45;87f2&#45;c2ff55c63fdc</title>
<path fill="none" stroke="black" d="M1016.15,-99.87C1066.78,-99.87 1117.4,-99.87 1168.03,-99.87"/>
<polygon fill="black" stroke="black" points="1168.16,-103.37 1178.16,-99.87 1168.16,-96.37 1168.16,-103.37"/>
</g>
<!-- 6a502f3f&#45;c0ed&#45;4e81&#45;b825&#45;dcb66ce48868 -->
<g id="node10" class="node">
<title>6a502f3f&#45;c0ed&#45;4e81&#45;b825&#45;dcb66ce48868</title>
<polygon fill="yellow" stroke="black" points="1085,-36 752,-36 752,0 1085,0 1085,-36"/>
<text text-anchor="middle" x="918.5" y="-14.3" font-family="Helvetica,sans-Serif" font-size="14.00">⋯ Run GitHub Actions for `cognosis/main.py`</text>
</g>
<!-- 89d1e7a2&#45;8b05&#45;4f58&#45;842a&#45;eddc77bc71f5&#45;&gt;6a502f3f&#45;c0ed&#45;4e81&#45;b825&#45;dcb66ce48868 -->
<g id="edge5" class="edge">
<title>89d1e7a2&#45;8b05&#45;4f58&#45;842a&#45;eddc77bc71f5&#45;&gt;6a502f3f&#45;c0ed&#45;4e81&#45;b825&#45;dcb66ce48868</title>
<path fill="none" stroke="black" stroke-dasharray="5,2" d="M918.5,-72.72C918.5,-64.27 918.5,-54.89 918.5,-46.36"/>
<polygon fill="black" stroke="black" points="922,-46.15 918.5,-36.15 915,-46.15 922,-46.15"/>
</g>
<!-- 6d95ff53&#45;64a0&#45;4327&#45;b08d&#45;bec194bcab1e -->
<g id="node7" class="node">
<title>6d95ff53&#45;64a0&#45;4327&#45;b08d&#45;bec194bcab1e</title>
<ellipse fill="white" stroke="black" cx="1587.5" cy="-99.87" rx="183.7" ry="26.74"/>
<text text-anchor="middle" x="1587.5" y="-103.67" font-family="Helvetica,sans-Serif" font-size="14.00">▶ Create</text>
<text text-anchor="middle" x="1587.5" y="-88.67" font-family="Helvetica,sans-Serif" font-size="14.00">cognosis/.github/workflows/ci.yaml</text>
</g>
<!-- f3fec215&#45;5958&#45;446b&#45;87f2&#45;c2ff55c63fdc&#45;&gt;6d95ff53&#45;64a0&#45;4327&#45;b08d&#45;bec194bcab1e -->
<g id="edge8" class="edge">
<title>f3fec215&#45;5958&#45;446b&#45;87f2&#45;c2ff55c63fdc&#45;&gt;6d95ff53&#45;64a0&#45;4327&#45;b08d&#45;bec194bcab1e</title>
<path fill="none" stroke="black" d="M1318.68,-99.87C1343.53,-99.87 1368.37,-99.87 1393.21,-99.87"/>
<polygon fill="black" stroke="black" points="1393.48,-103.37 1403.48,-99.87 1393.48,-96.37 1393.48,-103.37"/>
</g>
<!-- b3ef91ed&#45;cd17&#45;4689&#45;ab31&#45;5e2b5eb8e5d5 -->
<g id="node11" class="node">
<title>b3ef91ed&#45;cd17&#45;4689&#45;ab31&#45;5e2b5eb8e5d5</title>
<polygon fill="white" stroke="black" points="1393.5,-36 1103.5,-36 1103.5,0 1393.5,0 1393.5,-36"/>
<text text-anchor="middle" x="1248.5" y="-14.3" font-family="Helvetica,sans-Serif" font-size="14.00">▶ Run GitHub Actions for `sweep.yaml`</text>
</g>
<!-- f3fec215&#45;5958&#45;446b&#45;87f2&#45;c2ff55c63fdc&#45;&gt;b3ef91ed&#45;cd17&#45;4689&#45;ab31&#45;5e2b5eb8e5d5 -->
<g id="edge7" class="edge">
<title>f3fec215&#45;5958&#45;446b&#45;87f2&#45;c2ff55c63fdc&#45;&gt;b3ef91ed&#45;cd17&#45;4689&#45;ab31&#45;5e2b5eb8e5d5</title>
<path fill="none" stroke="black" stroke-dasharray="5,2" d="M1248.5,-72.72C1248.5,-64.27 1248.5,-54.89 1248.5,-46.36"/>
<polygon fill="black" stroke="black" points="1252,-46.15 1248.5,-36.15 1245,-46.15 1252,-46.15"/>
</g>
<!-- 6d95ff53&#45;64a0&#45;4327&#45;b08d&#45;bec194bcab1e&#45;&gt;end -->
<g id="edge11" class="edge">
<title>6d95ff53&#45;64a0&#45;4327&#45;b08d&#45;bec194bcab1e&#45;&gt;end</title>
<path fill="none" stroke="black" d="M1771.53,-99.87C1791.66,-99.87 1808.55,-99.87 1818.82,-99.87"/>
<polygon fill="black" stroke="black" points="1818.87,-103.37 1828.87,-99.87 1818.87,-96.37 1818.87,-103.37"/>
<text text-anchor="middle" x="1800.17" y="-106.67" font-family="Helvetica,sans-Serif" font-size="14.00">Finish</text>
</g>
<!-- 4bdb6fdc&#45;ae84&#45;43af&#45;86dd&#45;2c3b34740267 -->
<g id="node12" class="node">
<title>4bdb6fdc&#45;ae84&#45;43af&#45;86dd&#45;2c3b34740267</title>
<polygon fill="white" stroke="black" points="1863,-36 1412,-36 1412,0 1863,0 1863,-36"/>
<text text-anchor="middle" x="1637.5" y="-14.3" font-family="Helvetica,sans-Serif" font-size="14.00">▶ Run GitHub Actions for `cognosis/.github/workflows/ci.yaml`</text>
</g>
<!-- 6d95ff53&#45;64a0&#45;4327&#45;b08d&#45;bec194bcab1e&#45;&gt;4bdb6fdc&#45;ae84&#45;43af&#45;86dd&#45;2c3b34740267 -->
<g id="edge9" class="edge">
<title>6d95ff53&#45;64a0&#45;4327&#45;b08d&#45;bec194bcab1e&#45;&gt;4bdb6fdc&#45;ae84&#45;43af&#45;86dd&#45;2c3b34740267</title>
<path fill="none" stroke="black" stroke-dasharray="5,2" d="M1603.87,-72.72C1609.51,-63.71 1615.82,-53.64 1621.43,-44.67"/>
<polygon fill="black" stroke="black" points="1624.43,-46.48 1626.77,-36.15 1618.49,-42.77 1624.43,-46.48"/>
</g>
</g>
</svg>
