<?xml version="1.0" encoding="UTF-8" standalone="no"?>
<!DOCTYPE svg PUBLIC "-//W3C//DTD SVG 1.1//EN"
 "http://www.w3.org/Graphics/SVG/1.1/DTD/svg11.dtd">
<!-- Generated by graphviz version 2.43.0 (0)
 -->
<!-- Title: %3 Pages: 1 -->
<svg width="1929pt" height="238pt"
 viewBox="0.00 0.00 1928.50 237.74" xmlns="http://www.w3.org/2000/svg" xmlns:xlink="http://www.w3.org/1999/xlink">
<g id="graph0" class="graph" transform="scale(1 1) rotate(0) translate(36 201.74)">
<title>%3</title>
<polygon fill="dimgray" stroke="transparent" points="-36,36 -36,-201.74 1892.5,-201.74 1892.5,36 -36,36"/>
<text text-anchor="middle" x="928.25" y="-150.54" font-family="Helvetica,sans-Serif" font-size="14.00">Sweep&#39;s Plan &amp; Progress</text>
<!-- start -->
<g id="node1" class="node">
<title>start</title>
</g>
<!-- fbb23248&#45;3103&#45;4e76&#45;9fe3&#45;e2e6869438d1 -->
<g id="node3" class="node">
<title>fbb23248&#45;3103&#45;4e76&#45;9fe3&#45;e2e6869438d1</title>
<ellipse fill="yellow" stroke="black" cx="222" cy="-99.87" rx="105.22" ry="26.74"/>
<text text-anchor="middle" x="222" y="-103.67" font-family="Helvetica,sans-Serif" font-size="14.00">⋯ Modify</text>
<text text-anchor="middle" x="222" y="-88.67" font-family="Helvetica,sans-Serif" font-size="14.00">cognosis/uutils_.py</text>
</g>
<!-- start&#45;&gt;fbb23248&#45;3103&#45;4e76&#45;9fe3&#45;e2e6869438d1 -->
<g id="edge10" class="edge">
<title>start&#45;&gt;fbb23248&#45;3103&#45;4e76&#45;9fe3&#45;e2e6869438d1</title>
<path fill="none" stroke="black" d="M65.7,-99.87C69.19,-99.87 85.41,-99.87 106.17,-99.87"/>
<polygon fill="black" stroke="black" points="106.34,-103.37 116.34,-99.87 106.34,-96.37 106.34,-103.37"/>
<text text-anchor="middle" x="91.07" y="-106.67" font-family="Helvetica,sans-Serif" font-size="14.00">Start</text>
</g>
<!-- end -->
<g id="node2" class="node">
<title>end</title>
</g>
<!-- bfdd9c50&#45;e802&#45;42a7&#45;8ce0&#45;a362ed6f55be -->
<g id="node4" class="node">
<title>bfdd9c50&#45;e802&#45;42a7&#45;8ce0&#45;a362ed6f55be</title>
<ellipse fill="white" stroke="black" cx="545" cy="-99.87" rx="128.89" ry="26.74"/>
<text text-anchor="middle" x="545" y="-103.67" font-family="Helvetica,sans-Serif" font-size="14.00">▶ Modify</text>
<text text-anchor="middle" x="545" y="-88.67" font-family="Helvetica,sans-Serif" font-size="14.00">cognosis/test_uutils_.py</text>
</g>
<!-- fbb23248&#45;3103&#45;4e76&#45;9fe3&#45;e2e6869438d1&#45;&gt;bfdd9c50&#45;e802&#45;42a7&#45;8ce0&#45;a362ed6f55be -->
<g id="edge2" class="edge">
<title>fbb23248&#45;3103&#45;4e76&#45;9fe3&#45;e2e6869438d1&#45;&gt;bfdd9c50&#45;e802&#45;42a7&#45;8ce0&#45;a362ed6f55be</title>
<path fill="none" stroke="black" d="M327.67,-99.87C353.77,-99.87 379.86,-99.87 405.96,-99.87"/>
<polygon fill="black" stroke="black" points="405.96,-103.37 415.96,-99.87 405.96,-96.37 405.96,-103.37"/>
</g>
<!-- 1e9df3c3&#45;2c3c&#45;497b&#45;aeea&#45;c8ad5fbee864 -->
<g id="node8" class="node">
<title>1e9df3c3&#45;2c3c&#45;497b&#45;aeea&#45;c8ad5fbee864</title>
<polygon fill="white" stroke="black" points="340,-36 0,-36 0,0 340,0 340,-36"/>
<text text-anchor="middle" x="170" y="-14.3" font-family="Helvetica,sans-Serif" font-size="14.00">▶ Run GitHub Actions for `cognosis/uutils_.py`</text>
</g>
<!-- fbb23248&#45;3103&#45;4e76&#45;9fe3&#45;e2e6869438d1&#45;&gt;1e9df3c3&#45;2c3c&#45;497b&#45;aeea&#45;c8ad5fbee864 -->
<g id="edge1" class="edge">
<title>fbb23248&#45;3103&#45;4e76&#45;9fe3&#45;e2e6869438d1&#45;&gt;1e9df3c3&#45;2c3c&#45;497b&#45;aeea&#45;c8ad5fbee864</title>
<path fill="none" stroke="black" stroke-dasharray="5,2" d="M205.26,-73.16C199.38,-64.13 192.78,-53.98 186.89,-44.94"/>
<polygon fill="black" stroke="black" points="189.68,-42.81 181.29,-36.34 183.81,-46.63 189.68,-42.81"/>
</g>
<!-- 89d1e7a2&#45;8b05&#45;4f58&#45;842a&#45;eddc77bc71f5 -->
<g id="node5" class="node">
<title>89d1e7a2&#45;8b05&#45;4f58&#45;842a&#45;eddc77bc71f5</title>
<ellipse fill="white" stroke="black" cx="914" cy="-99.87" rx="97.66" ry="26.74"/>
<text text-anchor="middle" x="914" y="-103.67" font-family="Helvetica,sans-Serif" font-size="14.00">▶ Modify</text>
<text text-anchor="middle" x="914" y="-88.67" font-family="Helvetica,sans-Serif" font-size="14.00">cognosis/main.py</text>
</g>
<!-- bfdd9c50&#45;e802&#45;42a7&#45;8ce0&#45;a362ed6f55be&#45;&gt;89d1e7a2&#45;8b05&#45;4f58&#45;842a&#45;eddc77bc71f5 -->
<g id="edge4" class="edge">
<title>bfdd9c50&#45;e802&#45;42a7&#45;8ce0&#45;a362ed6f55be&#45;&gt;89d1e7a2&#45;8b05&#45;4f58&#45;842a&#45;eddc77bc71f5</title>
<path fill="none" stroke="black" d="M674.01,-99.87C717.93,-99.87 761.85,-99.87 805.77,-99.87"/>
<polygon fill="black" stroke="black" points="806.03,-103.37 816.03,-99.87 806.03,-96.37 806.03,-103.37"/>
</g>
<!-- 6abc8250&#45;88d9&#45;42b3&#45;9af6&#45;9c754920b3be -->
<g id="node9" class="node">
<title>6abc8250&#45;88d9&#45;42b3&#45;9af6&#45;9c754920b3be</title>
<polygon fill="white" stroke="black" points="731.5,-36 358.5,-36 358.5,0 731.5,0 731.5,-36"/>
<text text-anchor="middle" x="545" y="-14.3" font-family="Helvetica,sans-Serif" font-size="14.00">▶ Run GitHub Actions for `cognosis/test_uutils_.py`</text>
</g>
<!-- bfdd9c50&#45;e802&#45;42a7&#45;8ce0&#45;a362ed6f55be&#45;&gt;6abc8250&#45;88d9&#45;42b3&#45;9af6&#45;9c754920b3be -->
<g id="edge3" class="edge">
<title>bfdd9c50&#45;e802&#45;42a7&#45;8ce0&#45;a362ed6f55be&#45;&gt;6abc8250&#45;88d9&#45;42b3&#45;9af6&#45;9c754920b3be</title>
<path fill="none" stroke="black" stroke-dasharray="5,2" d="M545,-72.72C545,-64.27 545,-54.89 545,-46.36"/>
<polygon fill="black" stroke="black" points="548.5,-46.15 545,-36.15 541.5,-46.15 548.5,-46.15"/>
</g>
<!-- f3fec215&#45;5958&#45;446b&#45;87f2&#45;c2ff55c63fdc -->
<g id="node6" class="node">
<title>f3fec215&#45;5958&#45;446b&#45;87f2&#45;c2ff55c63fdc</title>
<ellipse fill="white" stroke="black" cx="1242" cy="-99.87" rx="70.01" ry="26.74"/>
<text text-anchor="middle" x="1242" y="-103.67" font-family="Helvetica,sans-Serif" font-size="14.00">▶ Modify</text>
<text text-anchor="middle" x="1242" y="-88.67" font-family="Helvetica,sans-Serif" font-size="14.00">sweep.yaml</text>
</g>
<!-- 89d1e7a2&#45;8b05&#45;4f58&#45;842a&#45;eddc77bc71f5&#45;&gt;f3fec215&#45;5958&#45;446b&#45;87f2&#45;c2ff55c63fdc -->
<g id="edge6" class="edge">
<title>89d1e7a2&#45;8b05&#45;4f58&#45;842a&#45;eddc77bc71f5&#45;&gt;f3fec215&#45;5958&#45;446b&#45;87f2&#45;c2ff55c63fdc</title>
<path fill="none" stroke="black" d="M1011.7,-99.87C1061.74,-99.87 1111.78,-99.87 1161.82,-99.87"/>
<polygon fill="black" stroke="black" points="1161.83,-103.37 1171.83,-99.87 1161.83,-96.37 1161.83,-103.37"/>
</g>
<!-- 6a502f3f&#45;c0ed&#45;4e81&#45;b825&#45;dcb66ce48868 -->
<g id="node10" class="node">
<title>6a502f3f&#45;c0ed&#45;4e81&#45;b825&#45;dcb66ce48868</title>
<polygon fill="white" stroke="black" points="1078.5,-36 749.5,-36 749.5,0 1078.5,0 1078.5,-36"/>
<text text-anchor="middle" x="914" y="-14.3" font-family="Helvetica,sans-Serif" font-size="14.00">▶ Run GitHub Actions for `cognosis/main.py`</text>
</g>
<!-- 89d1e7a2&#45;8b05&#45;4f58&#45;842a&#45;eddc77bc71f5&#45;&gt;6a502f3f&#45;c0ed&#45;4e81&#45;b825&#45;dcb66ce48868 -->
<g id="edge5" class="edge">
<title>89d1e7a2&#45;8b05&#45;4f58&#45;842a&#45;eddc77bc71f5&#45;&gt;6a502f3f&#45;c0ed&#45;4e81&#45;b825&#45;dcb66ce48868</title>
<path fill="none" stroke="black" stroke-dasharray="5,2" d="M914,-72.72C914,-64.27 914,-54.89 914,-46.36"/>
<polygon fill="black" stroke="black" points="917.5,-46.15 914,-36.15 910.5,-46.15 917.5,-46.15"/>
</g>
<!-- 6d95ff53&#45;64a0&#45;4327&#45;b08d&#45;bec194bcab1e -->
<g id="node7" class="node">
<title>6d95ff53&#45;64a0&#45;4327&#45;b08d&#45;bec194bcab1e</title>
<ellipse fill="white" stroke="black" cx="1581" cy="-99.87" rx="183.7" ry="26.74"/>
<text text-anchor="middle" x="1581" y="-103.67" font-family="Helvetica,sans-Serif" font-size="14.00">▶ Create</text>
<text text-anchor="middle" x="1581" y="-88.67" font-family="Helvetica,sans-Serif" font-size="14.00">cognosis/.github/workflows/ci.yaml</text>
</g>
<!-- f3fec215&#45;5958&#45;446b&#45;87f2&#45;c2ff55c63fdc&#45;&gt;6d95ff53&#45;64a0&#45;4327&#45;b08d&#45;bec194bcab1e -->
<g id="edge8" class="edge">
<title>f3fec215&#45;5958&#45;446b&#45;87f2&#45;c2ff55c63fdc&#45;&gt;6d95ff53&#45;64a0&#45;4327&#45;b08d&#45;bec194bcab1e</title>
<path fill="none" stroke="black" d="M1312.18,-99.87C1337.03,-99.87 1361.87,-99.87 1386.71,-99.87"/>
<polygon fill="black" stroke="black" points="1386.98,-103.37 1396.98,-99.87 1386.98,-96.37 1386.98,-103.37"/>
</g>
<!-- b3ef91ed&#45;cd17&#45;4689&#45;ab31&#45;5e2b5eb8e5d5 -->
<g id="node11" class="node">
<title>b3ef91ed&#45;cd17&#45;4689&#45;ab31&#45;5e2b5eb8e5d5</title>
<polygon fill="white" stroke="black" points="1387,-36 1097,-36 1097,0 1387,0 1387,-36"/>
<text text-anchor="middle" x="1242" y="-14.3" font-family="Helvetica,sans-Serif" font-size="14.00">▶ Run GitHub Actions for `sweep.yaml`</text>
</g>
<!-- f3fec215&#45;5958&#45;446b&#45;87f2&#45;c2ff55c63fdc&#45;&gt;b3ef91ed&#45;cd17&#45;4689&#45;ab31&#45;5e2b5eb8e5d5 -->
<g id="edge7" class="edge">
<title>f3fec215&#45;5958&#45;446b&#45;87f2&#45;c2ff55c63fdc&#45;&gt;b3ef91ed&#45;cd17&#45;4689&#45;ab31&#45;5e2b5eb8e5d5</title>
<path fill="none" stroke="black" stroke-dasharray="5,2" d="M1242,-72.72C1242,-64.27 1242,-54.89 1242,-46.36"/>
<polygon fill="black" stroke="black" points="1245.5,-46.15 1242,-36.15 1238.5,-46.15 1245.5,-46.15"/>
</g>
<!-- 6d95ff53&#45;64a0&#45;4327&#45;b08d&#45;bec194bcab1e&#45;&gt;end -->
<g id="edge11" class="edge">
<title>6d95ff53&#45;64a0&#45;4327&#45;b08d&#45;bec194bcab1e&#45;&gt;end</title>
<path fill="none" stroke="black" d="M1765.03,-99.87C1785.16,-99.87 1802.05,-99.87 1812.32,-99.87"/>
<polygon fill="black" stroke="black" points="1812.37,-103.37 1822.37,-99.87 1812.37,-96.37 1812.37,-103.37"/>
<text text-anchor="middle" x="1793.67" y="-106.67" font-family="Helvetica,sans-Serif" font-size="14.00">Finish</text>
</g>
<!-- 4bdb6fdc&#45;ae84&#45;43af&#45;86dd&#45;2c3b34740267 -->
<g id="node12" class="node">
<title>4bdb6fdc&#45;ae84&#45;43af&#45;86dd&#45;2c3b34740267</title>
<polygon fill="white" stroke="black" points="1856.5,-36 1405.5,-36 1405.5,0 1856.5,0 1856.5,-36"/>
<text text-anchor="middle" x="1631" y="-14.3" font-family="Helvetica,sans-Serif" font-size="14.00">▶ Run GitHub Actions for `cognosis/.github/workflows/ci.yaml`</text>
</g>
<!-- 6d95ff53&#45;64a0&#45;4327&#45;b08d&#45;bec194bcab1e&#45;&gt;4bdb6fdc&#45;ae84&#45;43af&#45;86dd&#45;2c3b34740267 -->
<g id="edge9" class="edge">
<title>6d95ff53&#45;64a0&#45;4327&#45;b08d&#45;bec194bcab1e&#45;&gt;4bdb6fdc&#45;ae84&#45;43af&#45;86dd&#45;2c3b34740267</title>
<path fill="none" stroke="black" stroke-dasharray="5,2" d="M1597.37,-72.72C1603.01,-63.71 1609.32,-53.64 1614.93,-44.67"/>
<polygon fill="black" stroke="black" points="1617.93,-46.48 1620.27,-36.15 1611.99,-42.77 1617.93,-46.48"/>
</g>
</g>
</svg>
