<?xml version="1.0" encoding="UTF-8" standalone="no"?>
<!DOCTYPE svg PUBLIC "-//W3C//DTD SVG 1.1//EN"
 "http://www.w3.org/Graphics/SVG/1.1/DTD/svg11.dtd">
<!-- Generated by graphviz version 2.43.0 (0)
 -->
<!-- Title: %3 Pages: 1 -->
<svg width="1933pt" height="238pt"
 viewBox="0.00 0.00 1933.00 237.74" xmlns="http://www.w3.org/2000/svg" xmlns:xlink="http://www.w3.org/1999/xlink">
<g id="graph0" class="graph" transform="scale(1 1) rotate(0) translate(36 201.74)">
<title>%3</title>
<polygon fill="dimgray" stroke="transparent" points="-36,36 -36,-201.74 1897,-201.74 1897,36 -36,36"/>
<text text-anchor="middle" x="930.5" y="-150.54" font-family="Helvetica,sans-Serif" font-size="14.00">Sweep&#39;s Plan &amp; Progress</text>
<!-- start -->
<g id="node1" class="node">
<title>start</title>
</g>
<!-- fbb23248&#45;3103&#45;4e76&#45;9fe3&#45;e2e6869438d1 -->
<g id="node3" class="node">
<title>fbb23248&#45;3103&#45;4e76&#45;9fe3&#45;e2e6869438d1</title>
<ellipse fill="#0ee832" stroke="black" cx="223.5" cy="-99.87" rx="105.22" ry="26.74"/>
<text text-anchor="middle" x="223.5" y="-103.67" font-family="Helvetica,sans-Serif" font-size="14.00">✓ Modify</text>
<text text-anchor="middle" x="223.5" y="-88.67" font-family="Helvetica,sans-Serif" font-size="14.00">cognosis/uutils_.py</text>
</g>
<!-- start&#45;&gt;fbb23248&#45;3103&#45;4e76&#45;9fe3&#45;e2e6869438d1 -->
<g id="edge10" class="edge">
<title>start&#45;&gt;fbb23248&#45;3103&#45;4e76&#45;9fe3&#45;e2e6869438d1</title>
<path fill="none" stroke="black" d="M67.2,-99.87C70.69,-99.87 86.91,-99.87 107.67,-99.87"/>
<polygon fill="black" stroke="black" points="107.84,-103.37 117.84,-99.87 107.84,-96.37 107.84,-103.37"/>
<text text-anchor="middle" x="92.57" y="-106.67" font-family="Helvetica,sans-Serif" font-size="14.00">Start</text>
</g>
<!-- end -->
<g id="node2" class="node">
<title>end</title>
</g>
<!-- bfdd9c50&#45;e802&#45;42a7&#45;8ce0&#45;a362ed6f55be -->
<g id="node4" class="node">
<title>bfdd9c50&#45;e802&#45;42a7&#45;8ce0&#45;a362ed6f55be</title>
<ellipse fill="#0ee832" stroke="black" cx="547.5" cy="-99.87" rx="128.89" ry="26.74"/>
<text text-anchor="middle" x="547.5" y="-103.67" font-family="Helvetica,sans-Serif" font-size="14.00">✓ Modify</text>
<text text-anchor="middle" x="547.5" y="-88.67" font-family="Helvetica,sans-Serif" font-size="14.00">cognosis/test_uutils_.py</text>
</g>
<!-- fbb23248&#45;3103&#45;4e76&#45;9fe3&#45;e2e6869438d1&#45;&gt;bfdd9c50&#45;e802&#45;42a7&#45;8ce0&#45;a362ed6f55be -->
<g id="edge2" class="edge">
<title>fbb23248&#45;3103&#45;4e76&#45;9fe3&#45;e2e6869438d1&#45;&gt;bfdd9c50&#45;e802&#45;42a7&#45;8ce0&#45;a362ed6f55be</title>
<path fill="none" stroke="black" d="M328.86,-99.87C355.37,-99.87 381.87,-99.87 408.38,-99.87"/>
<polygon fill="black" stroke="black" points="408.54,-103.37 418.54,-99.87 408.54,-96.37 408.54,-103.37"/>
</g>
<!-- 1e9df3c3&#45;2c3c&#45;497b&#45;aeea&#45;c8ad5fbee864 -->
<g id="node8" class="node">
<title>1e9df3c3&#45;2c3c&#45;497b&#45;aeea&#45;c8ad5fbee864</title>
<polygon fill="#0ee832" stroke="black" points="341,-36 0,-36 0,0 341,0 341,-36"/>
<text text-anchor="middle" x="170.5" y="-14.3" font-family="Helvetica,sans-Serif" font-size="14.00">✓ Run GitHub Actions for `cognosis/uutils_.py`</text>
</g>
<!-- fbb23248&#45;3103&#45;4e76&#45;9fe3&#45;e2e6869438d1&#45;&gt;1e9df3c3&#45;2c3c&#45;497b&#45;aeea&#45;c8ad5fbee864 -->
<g id="edge1" class="edge">
<title>fbb23248&#45;3103&#45;4e76&#45;9fe3&#45;e2e6869438d1&#45;&gt;1e9df3c3&#45;2c3c&#45;497b&#45;aeea&#45;c8ad5fbee864</title>
<path fill="none" stroke="black" stroke-dasharray="5,2" d="M206.44,-73.16C200.45,-64.13 193.71,-53.98 187.71,-44.94"/>
<polygon fill="black" stroke="black" points="190.45,-42.73 182,-36.34 184.62,-46.6 190.45,-42.73"/>
</g>
<!-- 89d1e7a2&#45;8b05&#45;4f58&#45;842a&#45;eddc77bc71f5 -->
<g id="node5" class="node">
<title>89d1e7a2&#45;8b05&#45;4f58&#45;842a&#45;eddc77bc71f5</title>
<ellipse fill="white" stroke="black" cx="918.5" cy="-99.87" rx="97.66" ry="26.74"/>
<text text-anchor="middle" x="918.5" y="-103.67" font-family="Helvetica,sans-Serif" font-size="14.00">▶ Modify</text>
<text text-anchor="middle" x="918.5" y="-88.67" font-family="Helvetica,sans-Serif" font-size="14.00">cognosis/main.py</text>
</g>
<!-- bfdd9c50&#45;e802&#45;42a7&#45;8ce0&#45;a362ed6f55be&#45;&gt;89d1e7a2&#45;8b05&#45;4f58&#45;842a&#45;eddc77bc71f5 -->
<g id="edge4" class="edge">
<title>bfdd9c50&#45;e802&#45;42a7&#45;8ce0&#45;a362ed6f55be&#45;&gt;89d1e7a2&#45;8b05&#45;4f58&#45;842a&#45;eddc77bc71f5</title>
<path fill="none" stroke="black" d="M676.48,-99.87C721.16,-99.87 765.84,-99.87 810.52,-99.87"/>
<polygon fill="black" stroke="black" points="810.65,-103.37 820.65,-99.87 810.65,-96.37 810.65,-103.37"/>
</g>
<!-- 6abc8250&#45;88d9&#45;42b3&#45;9af6&#45;9c754920b3be -->
<g id="node9" class="node">
<title>6abc8250&#45;88d9&#45;42b3&#45;9af6&#45;9c754920b3be</title>
<polygon fill="yellow" stroke="black" points="736,-36 359,-36 359,0 736,0 736,-36"/>
<text text-anchor="middle" x="547.5" y="-14.3" font-family="Helvetica,sans-Serif" font-size="14.00">⋯ Run GitHub Actions for `cognosis/test_uutils_.py`</text>
</g>
<!-- bfdd9c50&#45;e802&#45;42a7&#45;8ce0&#45;a362ed6f55be&#45;&gt;6abc8250&#45;88d9&#45;42b3&#45;9af6&#45;9c754920b3be -->
<g id="edge3" class="edge">
<title>bfdd9c50&#45;e802&#45;42a7&#45;8ce0&#45;a362ed6f55be&#45;&gt;6abc8250&#45;88d9&#45;42b3&#45;9af6&#45;9c754920b3be</title>
<path fill="none" stroke="black" stroke-dasharray="5,2" d="M547.5,-72.72C547.5,-64.27 547.5,-54.89 547.5,-46.36"/>
<polygon fill="black" stroke="black" points="551,-46.15 547.5,-36.15 544,-46.15 551,-46.15"/>
</g>
<!-- f3fec215&#45;5958&#45;446b&#45;87f2&#45;c2ff55c63fdc -->
<g id="node6" class="node">
<title>f3fec215&#45;5958&#45;446b&#45;87f2&#45;c2ff55c63fdc</title>
<ellipse fill="white" stroke="black" cx="1246.5" cy="-99.87" rx="70.01" ry="26.74"/>
<text text-anchor="middle" x="1246.5" y="-103.67" font-family="Helvetica,sans-Serif" font-size="14.00">▶ Modify</text>
<text text-anchor="middle" x="1246.5" y="-88.67" font-family="Helvetica,sans-Serif" font-size="14.00">sweep.yaml</text>
</g>
<!-- 89d1e7a2&#45;8b05&#45;4f58&#45;842a&#45;eddc77bc71f5&#45;&gt;f3fec215&#45;5958&#45;446b&#45;87f2&#45;c2ff55c63fdc -->
<g id="edge6" class="edge">
<title>89d1e7a2&#45;8b05&#45;4f58&#45;842a&#45;eddc77bc71f5&#45;&gt;f3fec215&#45;5958&#45;446b&#45;87f2&#45;c2ff55c63fdc</title>
<path fill="none" stroke="black" d="M1016.2,-99.87C1066.24,-99.87 1116.28,-99.87 1166.32,-99.87"/>
<polygon fill="black" stroke="black" points="1166.33,-103.37 1176.33,-99.87 1166.33,-96.37 1166.33,-103.37"/>
</g>
<!-- 6a502f3f&#45;c0ed&#45;4e81&#45;b825&#45;dcb66ce48868 -->
<g id="node10" class="node">
<title>6a502f3f&#45;c0ed&#45;4e81&#45;b825&#45;dcb66ce48868</title>
<polygon fill="white" stroke="black" points="1083,-36 754,-36 754,0 1083,0 1083,-36"/>
<text text-anchor="middle" x="918.5" y="-14.3" font-family="Helvetica,sans-Serif" font-size="14.00">▶ Run GitHub Actions for `cognosis/main.py`</text>
</g>
<!-- 89d1e7a2&#45;8b05&#45;4f58&#45;842a&#45;eddc77bc71f5&#45;&gt;6a502f3f&#45;c0ed&#45;4e81&#45;b825&#45;dcb66ce48868 -->
<g id="edge5" class="edge">
<title>89d1e7a2&#45;8b05&#45;4f58&#45;842a&#45;eddc77bc71f5&#45;&gt;6a502f3f&#45;c0ed&#45;4e81&#45;b825&#45;dcb66ce48868</title>
<path fill="none" stroke="black" stroke-dasharray="5,2" d="M918.5,-72.72C918.5,-64.27 918.5,-54.89 918.5,-46.36"/>
<polygon fill="black" stroke="black" points="922,-46.15 918.5,-36.15 915,-46.15 922,-46.15"/>
</g>
<!-- 6d95ff53&#45;64a0&#45;4327&#45;b08d&#45;bec194bcab1e -->
<g id="node7" class="node">
<title>6d95ff53&#45;64a0&#45;4327&#45;b08d&#45;bec194bcab1e</title>
<ellipse fill="white" stroke="black" cx="1585.5" cy="-99.87" rx="183.7" ry="26.74"/>
<text text-anchor="middle" x="1585.5" y="-103.67" font-family="Helvetica,sans-Serif" font-size="14.00">▶ Create</text>
<text text-anchor="middle" x="1585.5" y="-88.67" font-family="Helvetica,sans-Serif" font-size="14.00">cognosis/.github/workflows/ci.yaml</text>
</g>
<!-- f3fec215&#45;5958&#45;446b&#45;87f2&#45;c2ff55c63fdc&#45;&gt;6d95ff53&#45;64a0&#45;4327&#45;b08d&#45;bec194bcab1e -->
<g id="edge8" class="edge">
<title>f3fec215&#45;5958&#45;446b&#45;87f2&#45;c2ff55c63fdc&#45;&gt;6d95ff53&#45;64a0&#45;4327&#45;b08d&#45;bec194bcab1e</title>
<path fill="none" stroke="black" d="M1316.68,-99.87C1341.53,-99.87 1366.37,-99.87 1391.21,-99.87"/>
<polygon fill="black" stroke="black" points="1391.48,-103.37 1401.48,-99.87 1391.48,-96.37 1391.48,-103.37"/>
</g>
<!-- b3ef91ed&#45;cd17&#45;4689&#45;ab31&#45;5e2b5eb8e5d5 -->
<g id="node11" class="node">
<title>b3ef91ed&#45;cd17&#45;4689&#45;ab31&#45;5e2b5eb8e5d5</title>
<polygon fill="white" stroke="black" points="1391.5,-36 1101.5,-36 1101.5,0 1391.5,0 1391.5,-36"/>
<text text-anchor="middle" x="1246.5" y="-14.3" font-family="Helvetica,sans-Serif" font-size="14.00">▶ Run GitHub Actions for `sweep.yaml`</text>
</g>
<!-- f3fec215&#45;5958&#45;446b&#45;87f2&#45;c2ff55c63fdc&#45;&gt;b3ef91ed&#45;cd17&#45;4689&#45;ab31&#45;5e2b5eb8e5d5 -->
<g id="edge7" class="edge">
<title>f3fec215&#45;5958&#45;446b&#45;87f2&#45;c2ff55c63fdc&#45;&gt;b3ef91ed&#45;cd17&#45;4689&#45;ab31&#45;5e2b5eb8e5d5</title>
<path fill="none" stroke="black" stroke-dasharray="5,2" d="M1246.5,-72.72C1246.5,-64.27 1246.5,-54.89 1246.5,-46.36"/>
<polygon fill="black" stroke="black" points="1250,-46.15 1246.5,-36.15 1243,-46.15 1250,-46.15"/>
</g>
<!-- 6d95ff53&#45;64a0&#45;4327&#45;b08d&#45;bec194bcab1e&#45;&gt;end -->
<g id="edge11" class="edge">
<title>6d95ff53&#45;64a0&#45;4327&#45;b08d&#45;bec194bcab1e&#45;&gt;end</title>
<path fill="none" stroke="black" d="M1769.53,-99.87C1789.66,-99.87 1806.55,-99.87 1816.82,-99.87"/>
<polygon fill="black" stroke="black" points="1816.87,-103.37 1826.87,-99.87 1816.87,-96.37 1816.87,-103.37"/>
<text text-anchor="middle" x="1798.17" y="-106.67" font-family="Helvetica,sans-Serif" font-size="14.00">Finish</text>
</g>
<!-- 4bdb6fdc&#45;ae84&#45;43af&#45;86dd&#45;2c3b34740267 -->
<g id="node12" class="node">
<title>4bdb6fdc&#45;ae84&#45;43af&#45;86dd&#45;2c3b34740267</title>
<polygon fill="white" stroke="black" points="1861,-36 1410,-36 1410,0 1861,0 1861,-36"/>
<text text-anchor="middle" x="1635.5" y="-14.3" font-family="Helvetica,sans-Serif" font-size="14.00">▶ Run GitHub Actions for `cognosis/.github/workflows/ci.yaml`</text>
</g>
<!-- 6d95ff53&#45;64a0&#45;4327&#45;b08d&#45;bec194bcab1e&#45;&gt;4bdb6fdc&#45;ae84&#45;43af&#45;86dd&#45;2c3b34740267 -->
<g id="edge9" class="edge">
<title>6d95ff53&#45;64a0&#45;4327&#45;b08d&#45;bec194bcab1e&#45;&gt;4bdb6fdc&#45;ae84&#45;43af&#45;86dd&#45;2c3b34740267</title>
<path fill="none" stroke="black" stroke-dasharray="5,2" d="M1601.87,-72.72C1607.51,-63.71 1613.82,-53.64 1619.43,-44.67"/>
<polygon fill="black" stroke="black" points="1622.43,-46.48 1624.77,-36.15 1616.49,-42.77 1622.43,-46.48"/>
</g>
</g>
</svg>
