<?xml version="1.0" encoding="UTF-8" standalone="no"?>
<!DOCTYPE svg PUBLIC "-//W3C//DTD SVG 1.1//EN"
 "http://www.w3.org/Graphics/SVG/1.1/DTD/svg11.dtd">
<!-- Generated by graphviz version 2.43.0 (0)
 -->
<!-- Title: %3 Pages: 1 -->
<svg width="1933pt" height="238pt"
 viewBox="0.00 0.00 1932.50 237.74" xmlns="http://www.w3.org/2000/svg" xmlns:xlink="http://www.w3.org/1999/xlink">
<g id="graph0" class="graph" transform="scale(1 1) rotate(0) translate(36 201.74)">
<title>%3</title>
<polygon fill="dimgray" stroke="transparent" points="-36,36 -36,-201.74 1896.5,-201.74 1896.5,36 -36,36"/>
<text text-anchor="middle" x="930.25" y="-150.54" font-family="Helvetica,sans-Serif" font-size="14.00">Sweep&#39;s Plan &amp; Progress</text>
<!-- start -->
<g id="node1" class="node">
<title>start</title>
</g>
<!-- fbb23248&#45;3103&#45;4e76&#45;9fe3&#45;e2e6869438d1 -->
<g id="node3" class="node">
<title>fbb23248&#45;3103&#45;4e76&#45;9fe3&#45;e2e6869438d1</title>
<ellipse fill="#0ee832" stroke="black" cx="225" cy="-99.87" rx="105.22" ry="26.74"/>
<text text-anchor="middle" x="225" y="-103.67" font-family="Helvetica,sans-Serif" font-size="14.00">✓ Modify</text>
<text text-anchor="middle" x="225" y="-88.67" font-family="Helvetica,sans-Serif" font-size="14.00">cognosis/uutils_.py</text>
</g>
<!-- start&#45;&gt;fbb23248&#45;3103&#45;4e76&#45;9fe3&#45;e2e6869438d1 -->
<g id="edge10" class="edge">
<title>start&#45;&gt;fbb23248&#45;3103&#45;4e76&#45;9fe3&#45;e2e6869438d1</title>
<path fill="none" stroke="black" d="M68.7,-99.87C72.19,-99.87 88.41,-99.87 109.17,-99.87"/>
<polygon fill="black" stroke="black" points="109.34,-103.37 119.34,-99.87 109.34,-96.37 109.34,-103.37"/>
<text text-anchor="middle" x="94.07" y="-106.67" font-family="Helvetica,sans-Serif" font-size="14.00">Start</text>
</g>
<!-- end -->
<g id="node2" class="node">
<title>end</title>
</g>
<!-- bfdd9c50&#45;e802&#45;42a7&#45;8ce0&#45;a362ed6f55be -->
<g id="node4" class="node">
<title>bfdd9c50&#45;e802&#45;42a7&#45;8ce0&#45;a362ed6f55be</title>
<ellipse fill="white" stroke="black" cx="549" cy="-99.87" rx="128.89" ry="26.74"/>
<text text-anchor="middle" x="549" y="-103.67" font-family="Helvetica,sans-Serif" font-size="14.00">▶ Modify</text>
<text text-anchor="middle" x="549" y="-88.67" font-family="Helvetica,sans-Serif" font-size="14.00">cognosis/test_uutils_.py</text>
</g>
<!-- fbb23248&#45;3103&#45;4e76&#45;9fe3&#45;e2e6869438d1&#45;&gt;bfdd9c50&#45;e802&#45;42a7&#45;8ce0&#45;a362ed6f55be -->
<g id="edge2" class="edge">
<title>fbb23248&#45;3103&#45;4e76&#45;9fe3&#45;e2e6869438d1&#45;&gt;bfdd9c50&#45;e802&#45;42a7&#45;8ce0&#45;a362ed6f55be</title>
<path fill="none" stroke="black" d="M330.36,-99.87C356.87,-99.87 383.37,-99.87 409.88,-99.87"/>
<polygon fill="black" stroke="black" points="410.04,-103.37 420.04,-99.87 410.04,-96.37 410.04,-103.37"/>
</g>
<!-- 1e9df3c3&#45;2c3c&#45;497b&#45;aeea&#45;c8ad5fbee864 -->
<g id="node8" class="node">
<title>1e9df3c3&#45;2c3c&#45;497b&#45;aeea&#45;c8ad5fbee864</title>
<polygon fill="yellow" stroke="black" points="344,-36 0,-36 0,0 344,0 344,-36"/>
<text text-anchor="middle" x="172" y="-14.3" font-family="Helvetica,sans-Serif" font-size="14.00">⋯ Run GitHub Actions for `cognosis/uutils_.py`</text>
</g>
<!-- fbb23248&#45;3103&#45;4e76&#45;9fe3&#45;e2e6869438d1&#45;&gt;1e9df3c3&#45;2c3c&#45;497b&#45;aeea&#45;c8ad5fbee864 -->
<g id="edge1" class="edge">
<title>fbb23248&#45;3103&#45;4e76&#45;9fe3&#45;e2e6869438d1&#45;&gt;1e9df3c3&#45;2c3c&#45;497b&#45;aeea&#45;c8ad5fbee864</title>
<path fill="none" stroke="black" stroke-dasharray="5,2" d="M207.94,-73.16C201.95,-64.13 195.21,-53.98 189.21,-44.94"/>
<polygon fill="black" stroke="black" points="191.95,-42.73 183.5,-36.34 186.12,-46.6 191.95,-42.73"/>
</g>
<!-- 89d1e7a2&#45;8b05&#45;4f58&#45;842a&#45;eddc77bc71f5 -->
<g id="node5" class="node">
<title>89d1e7a2&#45;8b05&#45;4f58&#45;842a&#45;eddc77bc71f5</title>
<ellipse fill="white" stroke="black" cx="918" cy="-99.87" rx="97.66" ry="26.74"/>
<text text-anchor="middle" x="918" y="-103.67" font-family="Helvetica,sans-Serif" font-size="14.00">▶ Modify</text>
<text text-anchor="middle" x="918" y="-88.67" font-family="Helvetica,sans-Serif" font-size="14.00">cognosis/main.py</text>
</g>
<!-- bfdd9c50&#45;e802&#45;42a7&#45;8ce0&#45;a362ed6f55be&#45;&gt;89d1e7a2&#45;8b05&#45;4f58&#45;842a&#45;eddc77bc71f5 -->
<g id="edge4" class="edge">
<title>bfdd9c50&#45;e802&#45;42a7&#45;8ce0&#45;a362ed6f55be&#45;&gt;89d1e7a2&#45;8b05&#45;4f58&#45;842a&#45;eddc77bc71f5</title>
<path fill="none" stroke="black" d="M678.01,-99.87C721.93,-99.87 765.85,-99.87 809.77,-99.87"/>
<polygon fill="black" stroke="black" points="810.03,-103.37 820.03,-99.87 810.03,-96.37 810.03,-103.37"/>
</g>
<!-- 6abc8250&#45;88d9&#45;42b3&#45;9af6&#45;9c754920b3be -->
<g id="node9" class="node">
<title>6abc8250&#45;88d9&#45;42b3&#45;9af6&#45;9c754920b3be</title>
<polygon fill="white" stroke="black" points="735.5,-36 362.5,-36 362.5,0 735.5,0 735.5,-36"/>
<text text-anchor="middle" x="549" y="-14.3" font-family="Helvetica,sans-Serif" font-size="14.00">▶ Run GitHub Actions for `cognosis/test_uutils_.py`</text>
</g>
<!-- bfdd9c50&#45;e802&#45;42a7&#45;8ce0&#45;a362ed6f55be&#45;&gt;6abc8250&#45;88d9&#45;42b3&#45;9af6&#45;9c754920b3be -->
<g id="edge3" class="edge">
<title>bfdd9c50&#45;e802&#45;42a7&#45;8ce0&#45;a362ed6f55be&#45;&gt;6abc8250&#45;88d9&#45;42b3&#45;9af6&#45;9c754920b3be</title>
<path fill="none" stroke="black" stroke-dasharray="5,2" d="M549,-72.72C549,-64.27 549,-54.89 549,-46.36"/>
<polygon fill="black" stroke="black" points="552.5,-46.15 549,-36.15 545.5,-46.15 552.5,-46.15"/>
</g>
<!-- f3fec215&#45;5958&#45;446b&#45;87f2&#45;c2ff55c63fdc -->
<g id="node6" class="node">
<title>f3fec215&#45;5958&#45;446b&#45;87f2&#45;c2ff55c63fdc</title>
<ellipse fill="white" stroke="black" cx="1246" cy="-99.87" rx="70.01" ry="26.74"/>
<text text-anchor="middle" x="1246" y="-103.67" font-family="Helvetica,sans-Serif" font-size="14.00">▶ Modify</text>
<text text-anchor="middle" x="1246" y="-88.67" font-family="Helvetica,sans-Serif" font-size="14.00">sweep.yaml</text>
</g>
<!-- 89d1e7a2&#45;8b05&#45;4f58&#45;842a&#45;eddc77bc71f5&#45;&gt;f3fec215&#45;5958&#45;446b&#45;87f2&#45;c2ff55c63fdc -->
<g id="edge6" class="edge">
<title>89d1e7a2&#45;8b05&#45;4f58&#45;842a&#45;eddc77bc71f5&#45;&gt;f3fec215&#45;5958&#45;446b&#45;87f2&#45;c2ff55c63fdc</title>
<path fill="none" stroke="black" d="M1015.7,-99.87C1065.74,-99.87 1115.78,-99.87 1165.82,-99.87"/>
<polygon fill="black" stroke="black" points="1165.83,-103.37 1175.83,-99.87 1165.83,-96.37 1165.83,-103.37"/>
</g>
<!-- 6a502f3f&#45;c0ed&#45;4e81&#45;b825&#45;dcb66ce48868 -->
<g id="node10" class="node">
<title>6a502f3f&#45;c0ed&#45;4e81&#45;b825&#45;dcb66ce48868</title>
<polygon fill="white" stroke="black" points="1082.5,-36 753.5,-36 753.5,0 1082.5,0 1082.5,-36"/>
<text text-anchor="middle" x="918" y="-14.3" font-family="Helvetica,sans-Serif" font-size="14.00">▶ Run GitHub Actions for `cognosis/main.py`</text>
</g>
<!-- 89d1e7a2&#45;8b05&#45;4f58&#45;842a&#45;eddc77bc71f5&#45;&gt;6a502f3f&#45;c0ed&#45;4e81&#45;b825&#45;dcb66ce48868 -->
<g id="edge5" class="edge">
<title>89d1e7a2&#45;8b05&#45;4f58&#45;842a&#45;eddc77bc71f5&#45;&gt;6a502f3f&#45;c0ed&#45;4e81&#45;b825&#45;dcb66ce48868</title>
<path fill="none" stroke="black" stroke-dasharray="5,2" d="M918,-72.72C918,-64.27 918,-54.89 918,-46.36"/>
<polygon fill="black" stroke="black" points="921.5,-46.15 918,-36.15 914.5,-46.15 921.5,-46.15"/>
</g>
<!-- 6d95ff53&#45;64a0&#45;4327&#45;b08d&#45;bec194bcab1e -->
<g id="node7" class="node">
<title>6d95ff53&#45;64a0&#45;4327&#45;b08d&#45;bec194bcab1e</title>
<ellipse fill="white" stroke="black" cx="1585" cy="-99.87" rx="183.7" ry="26.74"/>
<text text-anchor="middle" x="1585" y="-103.67" font-family="Helvetica,sans-Serif" font-size="14.00">▶ Create</text>
<text text-anchor="middle" x="1585" y="-88.67" font-family="Helvetica,sans-Serif" font-size="14.00">cognosis/.github/workflows/ci.yaml</text>
</g>
<!-- f3fec215&#45;5958&#45;446b&#45;87f2&#45;c2ff55c63fdc&#45;&gt;6d95ff53&#45;64a0&#45;4327&#45;b08d&#45;bec194bcab1e -->
<g id="edge8" class="edge">
<title>f3fec215&#45;5958&#45;446b&#45;87f2&#45;c2ff55c63fdc&#45;&gt;6d95ff53&#45;64a0&#45;4327&#45;b08d&#45;bec194bcab1e</title>
<path fill="none" stroke="black" d="M1316.18,-99.87C1341.03,-99.87 1365.87,-99.87 1390.71,-99.87"/>
<polygon fill="black" stroke="black" points="1390.98,-103.37 1400.98,-99.87 1390.98,-96.37 1390.98,-103.37"/>
</g>
<!-- b3ef91ed&#45;cd17&#45;4689&#45;ab31&#45;5e2b5eb8e5d5 -->
<g id="node11" class="node">
<title>b3ef91ed&#45;cd17&#45;4689&#45;ab31&#45;5e2b5eb8e5d5</title>
<polygon fill="white" stroke="black" points="1391,-36 1101,-36 1101,0 1391,0 1391,-36"/>
<text text-anchor="middle" x="1246" y="-14.3" font-family="Helvetica,sans-Serif" font-size="14.00">▶ Run GitHub Actions for `sweep.yaml`</text>
</g>
<!-- f3fec215&#45;5958&#45;446b&#45;87f2&#45;c2ff55c63fdc&#45;&gt;b3ef91ed&#45;cd17&#45;4689&#45;ab31&#45;5e2b5eb8e5d5 -->
<g id="edge7" class="edge">
<title>f3fec215&#45;5958&#45;446b&#45;87f2&#45;c2ff55c63fdc&#45;&gt;b3ef91ed&#45;cd17&#45;4689&#45;ab31&#45;5e2b5eb8e5d5</title>
<path fill="none" stroke="black" stroke-dasharray="5,2" d="M1246,-72.72C1246,-64.27 1246,-54.89 1246,-46.36"/>
<polygon fill="black" stroke="black" points="1249.5,-46.15 1246,-36.15 1242.5,-46.15 1249.5,-46.15"/>
</g>
<!-- 6d95ff53&#45;64a0&#45;4327&#45;b08d&#45;bec194bcab1e&#45;&gt;end -->
<g id="edge11" class="edge">
<title>6d95ff53&#45;64a0&#45;4327&#45;b08d&#45;bec194bcab1e&#45;&gt;end</title>
<path fill="none" stroke="black" d="M1769.03,-99.87C1789.16,-99.87 1806.05,-99.87 1816.32,-99.87"/>
<polygon fill="black" stroke="black" points="1816.37,-103.37 1826.37,-99.87 1816.37,-96.37 1816.37,-103.37"/>
<text text-anchor="middle" x="1797.67" y="-106.67" font-family="Helvetica,sans-Serif" font-size="14.00">Finish</text>
</g>
<!-- 4bdb6fdc&#45;ae84&#45;43af&#45;86dd&#45;2c3b34740267 -->
<g id="node12" class="node">
<title>4bdb6fdc&#45;ae84&#45;43af&#45;86dd&#45;2c3b34740267</title>
<polygon fill="white" stroke="black" points="1860.5,-36 1409.5,-36 1409.5,0 1860.5,0 1860.5,-36"/>
<text text-anchor="middle" x="1635" y="-14.3" font-family="Helvetica,sans-Serif" font-size="14.00">▶ Run GitHub Actions for `cognosis/.github/workflows/ci.yaml`</text>
</g>
<!-- 6d95ff53&#45;64a0&#45;4327&#45;b08d&#45;bec194bcab1e&#45;&gt;4bdb6fdc&#45;ae84&#45;43af&#45;86dd&#45;2c3b34740267 -->
<g id="edge9" class="edge">
<title>6d95ff53&#45;64a0&#45;4327&#45;b08d&#45;bec194bcab1e&#45;&gt;4bdb6fdc&#45;ae84&#45;43af&#45;86dd&#45;2c3b34740267</title>
<path fill="none" stroke="black" stroke-dasharray="5,2" d="M1601.37,-72.72C1607.01,-63.71 1613.32,-53.64 1618.93,-44.67"/>
<polygon fill="black" stroke="black" points="1621.93,-46.48 1624.27,-36.15 1615.99,-42.77 1621.93,-46.48"/>
</g>
</g>
</svg>
