<?xml version="1.0" encoding="UTF-8" standalone="no"?>
<!DOCTYPE svg PUBLIC "-//W3C//DTD SVG 1.1//EN"
 "http://www.w3.org/Graphics/SVG/1.1/DTD/svg11.dtd">
<!-- Generated by graphviz version 2.43.0 (0)
 -->
<!-- Title: %3 Pages: 1 -->
<svg width="1929pt" height="238pt"
 viewBox="0.00 0.00 1929.00 237.74" xmlns="http://www.w3.org/2000/svg" xmlns:xlink="http://www.w3.org/1999/xlink">
<g id="graph0" class="graph" transform="scale(1 1) rotate(0) translate(36 201.74)">
<title>%3</title>
<polygon fill="dimgray" stroke="transparent" points="-36,36 -36,-201.74 1893,-201.74 1893,36 -36,36"/>
<text text-anchor="middle" x="928.5" y="-150.54" font-family="Helvetica,sans-Serif" font-size="14.00">Sweep&#39;s Plan &amp; Progress</text>
<!-- start -->
<g id="node1" class="node">
<title>start</title>
</g>
<!-- fbb23248&#45;3103&#45;4e76&#45;9fe3&#45;e2e6869438d1 -->
<g id="node3" class="node">
<title>fbb23248&#45;3103&#45;4e76&#45;9fe3&#45;e2e6869438d1</title>
<ellipse fill="#0ee832" stroke="black" cx="222.5" cy="-99.87" rx="105.22" ry="26.74"/>
<text text-anchor="middle" x="222.5" y="-103.67" font-family="Helvetica,sans-Serif" font-size="14.00">✓ Modify</text>
<text text-anchor="middle" x="222.5" y="-88.67" font-family="Helvetica,sans-Serif" font-size="14.00">cognosis/uutils_.py</text>
</g>
<!-- start&#45;&gt;fbb23248&#45;3103&#45;4e76&#45;9fe3&#45;e2e6869438d1 -->
<g id="edge10" class="edge">
<title>start&#45;&gt;fbb23248&#45;3103&#45;4e76&#45;9fe3&#45;e2e6869438d1</title>
<path fill="none" stroke="black" d="M66.2,-99.87C69.69,-99.87 85.91,-99.87 106.67,-99.87"/>
<polygon fill="black" stroke="black" points="106.84,-103.37 116.84,-99.87 106.84,-96.37 106.84,-103.37"/>
<text text-anchor="middle" x="91.57" y="-106.67" font-family="Helvetica,sans-Serif" font-size="14.00">Start</text>
</g>
<!-- end -->
<g id="node2" class="node">
<title>end</title>
</g>
<!-- bfdd9c50&#45;e802&#45;42a7&#45;8ce0&#45;a362ed6f55be -->
<g id="node4" class="node">
<title>bfdd9c50&#45;e802&#45;42a7&#45;8ce0&#45;a362ed6f55be</title>
<ellipse fill="white" stroke="black" cx="545.5" cy="-99.87" rx="128.89" ry="26.74"/>
<text text-anchor="middle" x="545.5" y="-103.67" font-family="Helvetica,sans-Serif" font-size="14.00">▶ Modify</text>
<text text-anchor="middle" x="545.5" y="-88.67" font-family="Helvetica,sans-Serif" font-size="14.00">cognosis/test_uutils_.py</text>
</g>
<!-- fbb23248&#45;3103&#45;4e76&#45;9fe3&#45;e2e6869438d1&#45;&gt;bfdd9c50&#45;e802&#45;42a7&#45;8ce0&#45;a362ed6f55be -->
<g id="edge2" class="edge">
<title>fbb23248&#45;3103&#45;4e76&#45;9fe3&#45;e2e6869438d1&#45;&gt;bfdd9c50&#45;e802&#45;42a7&#45;8ce0&#45;a362ed6f55be</title>
<path fill="none" stroke="black" d="M328.17,-99.87C354.27,-99.87 380.36,-99.87 406.46,-99.87"/>
<polygon fill="black" stroke="black" points="406.46,-103.37 416.46,-99.87 406.46,-96.37 406.46,-103.37"/>
</g>
<!-- 1e9df3c3&#45;2c3c&#45;497b&#45;aeea&#45;c8ad5fbee864 -->
<g id="node8" class="node">
<title>1e9df3c3&#45;2c3c&#45;497b&#45;aeea&#45;c8ad5fbee864</title>
<polygon fill="#0ee832" stroke="black" points="341,-36 0,-36 0,0 341,0 341,-36"/>
<text text-anchor="middle" x="170.5" y="-14.3" font-family="Helvetica,sans-Serif" font-size="14.00">✓ Run GitHub Actions for `cognosis/uutils_.py`</text>
</g>
<!-- fbb23248&#45;3103&#45;4e76&#45;9fe3&#45;e2e6869438d1&#45;&gt;1e9df3c3&#45;2c3c&#45;497b&#45;aeea&#45;c8ad5fbee864 -->
<g id="edge1" class="edge">
<title>fbb23248&#45;3103&#45;4e76&#45;9fe3&#45;e2e6869438d1&#45;&gt;1e9df3c3&#45;2c3c&#45;497b&#45;aeea&#45;c8ad5fbee864</title>
<path fill="none" stroke="black" stroke-dasharray="5,2" d="M205.76,-73.16C199.88,-64.13 193.28,-53.98 187.39,-44.94"/>
<polygon fill="black" stroke="black" points="190.18,-42.81 181.79,-36.34 184.31,-46.63 190.18,-42.81"/>
</g>
<!-- 89d1e7a2&#45;8b05&#45;4f58&#45;842a&#45;eddc77bc71f5 -->
<g id="node5" class="node">
<title>89d1e7a2&#45;8b05&#45;4f58&#45;842a&#45;eddc77bc71f5</title>
<ellipse fill="white" stroke="black" cx="914.5" cy="-99.87" rx="97.66" ry="26.74"/>
<text text-anchor="middle" x="914.5" y="-103.67" font-family="Helvetica,sans-Serif" font-size="14.00">▶ Modify</text>
<text text-anchor="middle" x="914.5" y="-88.67" font-family="Helvetica,sans-Serif" font-size="14.00">cognosis/main.py</text>
</g>
<!-- bfdd9c50&#45;e802&#45;42a7&#45;8ce0&#45;a362ed6f55be&#45;&gt;89d1e7a2&#45;8b05&#45;4f58&#45;842a&#45;eddc77bc71f5 -->
<g id="edge4" class="edge">
<title>bfdd9c50&#45;e802&#45;42a7&#45;8ce0&#45;a362ed6f55be&#45;&gt;89d1e7a2&#45;8b05&#45;4f58&#45;842a&#45;eddc77bc71f5</title>
<path fill="none" stroke="black" d="M674.51,-99.87C718.43,-99.87 762.35,-99.87 806.27,-99.87"/>
<polygon fill="black" stroke="black" points="806.53,-103.37 816.53,-99.87 806.53,-96.37 806.53,-103.37"/>
</g>
<!-- 6abc8250&#45;88d9&#45;42b3&#45;9af6&#45;9c754920b3be -->
<g id="node9" class="node">
<title>6abc8250&#45;88d9&#45;42b3&#45;9af6&#45;9c754920b3be</title>
<polygon fill="white" stroke="black" points="732,-36 359,-36 359,0 732,0 732,-36"/>
<text text-anchor="middle" x="545.5" y="-14.3" font-family="Helvetica,sans-Serif" font-size="14.00">▶ Run GitHub Actions for `cognosis/test_uutils_.py`</text>
</g>
<!-- bfdd9c50&#45;e802&#45;42a7&#45;8ce0&#45;a362ed6f55be&#45;&gt;6abc8250&#45;88d9&#45;42b3&#45;9af6&#45;9c754920b3be -->
<g id="edge3" class="edge">
<title>bfdd9c50&#45;e802&#45;42a7&#45;8ce0&#45;a362ed6f55be&#45;&gt;6abc8250&#45;88d9&#45;42b3&#45;9af6&#45;9c754920b3be</title>
<path fill="none" stroke="black" stroke-dasharray="5,2" d="M545.5,-72.72C545.5,-64.27 545.5,-54.89 545.5,-46.36"/>
<polygon fill="black" stroke="black" points="549,-46.15 545.5,-36.15 542,-46.15 549,-46.15"/>
</g>
<!-- f3fec215&#45;5958&#45;446b&#45;87f2&#45;c2ff55c63fdc -->
<g id="node6" class="node">
<title>f3fec215&#45;5958&#45;446b&#45;87f2&#45;c2ff55c63fdc</title>
<ellipse fill="white" stroke="black" cx="1242.5" cy="-99.87" rx="70.01" ry="26.74"/>
<text text-anchor="middle" x="1242.5" y="-103.67" font-family="Helvetica,sans-Serif" font-size="14.00">▶ Modify</text>
<text text-anchor="middle" x="1242.5" y="-88.67" font-family="Helvetica,sans-Serif" font-size="14.00">sweep.yaml</text>
</g>
<!-- 89d1e7a2&#45;8b05&#45;4f58&#45;842a&#45;eddc77bc71f5&#45;&gt;f3fec215&#45;5958&#45;446b&#45;87f2&#45;c2ff55c63fdc -->
<g id="edge6" class="edge">
<title>89d1e7a2&#45;8b05&#45;4f58&#45;842a&#45;eddc77bc71f5&#45;&gt;f3fec215&#45;5958&#45;446b&#45;87f2&#45;c2ff55c63fdc</title>
<path fill="none" stroke="black" d="M1012.2,-99.87C1062.24,-99.87 1112.28,-99.87 1162.32,-99.87"/>
<polygon fill="black" stroke="black" points="1162.33,-103.37 1172.33,-99.87 1162.33,-96.37 1162.33,-103.37"/>
</g>
<!-- 6a502f3f&#45;c0ed&#45;4e81&#45;b825&#45;dcb66ce48868 -->
<g id="node10" class="node">
<title>6a502f3f&#45;c0ed&#45;4e81&#45;b825&#45;dcb66ce48868</title>
<polygon fill="white" stroke="black" points="1079,-36 750,-36 750,0 1079,0 1079,-36"/>
<text text-anchor="middle" x="914.5" y="-14.3" font-family="Helvetica,sans-Serif" font-size="14.00">▶ Run GitHub Actions for `cognosis/main.py`</text>
</g>
<!-- 89d1e7a2&#45;8b05&#45;4f58&#45;842a&#45;eddc77bc71f5&#45;&gt;6a502f3f&#45;c0ed&#45;4e81&#45;b825&#45;dcb66ce48868 -->
<g id="edge5" class="edge">
<title>89d1e7a2&#45;8b05&#45;4f58&#45;842a&#45;eddc77bc71f5&#45;&gt;6a502f3f&#45;c0ed&#45;4e81&#45;b825&#45;dcb66ce48868</title>
<path fill="none" stroke="black" stroke-dasharray="5,2" d="M914.5,-72.72C914.5,-64.27 914.5,-54.89 914.5,-46.36"/>
<polygon fill="black" stroke="black" points="918,-46.15 914.5,-36.15 911,-46.15 918,-46.15"/>
</g>
<!-- 6d95ff53&#45;64a0&#45;4327&#45;b08d&#45;bec194bcab1e -->
<g id="node7" class="node">
<title>6d95ff53&#45;64a0&#45;4327&#45;b08d&#45;bec194bcab1e</title>
<ellipse fill="white" stroke="black" cx="1581.5" cy="-99.87" rx="183.7" ry="26.74"/>
<text text-anchor="middle" x="1581.5" y="-103.67" font-family="Helvetica,sans-Serif" font-size="14.00">▶ Create</text>
<text text-anchor="middle" x="1581.5" y="-88.67" font-family="Helvetica,sans-Serif" font-size="14.00">cognosis/.github/workflows/ci.yaml</text>
</g>
<!-- f3fec215&#45;5958&#45;446b&#45;87f2&#45;c2ff55c63fdc&#45;&gt;6d95ff53&#45;64a0&#45;4327&#45;b08d&#45;bec194bcab1e -->
<g id="edge8" class="edge">
<title>f3fec215&#45;5958&#45;446b&#45;87f2&#45;c2ff55c63fdc&#45;&gt;6d95ff53&#45;64a0&#45;4327&#45;b08d&#45;bec194bcab1e</title>
<path fill="none" stroke="black" d="M1312.68,-99.87C1337.53,-99.87 1362.37,-99.87 1387.21,-99.87"/>
<polygon fill="black" stroke="black" points="1387.48,-103.37 1397.48,-99.87 1387.48,-96.37 1387.48,-103.37"/>
</g>
<!-- b3ef91ed&#45;cd17&#45;4689&#45;ab31&#45;5e2b5eb8e5d5 -->
<g id="node11" class="node">
<title>b3ef91ed&#45;cd17&#45;4689&#45;ab31&#45;5e2b5eb8e5d5</title>
<polygon fill="white" stroke="black" points="1387.5,-36 1097.5,-36 1097.5,0 1387.5,0 1387.5,-36"/>
<text text-anchor="middle" x="1242.5" y="-14.3" font-family="Helvetica,sans-Serif" font-size="14.00">▶ Run GitHub Actions for `sweep.yaml`</text>
</g>
<!-- f3fec215&#45;5958&#45;446b&#45;87f2&#45;c2ff55c63fdc&#45;&gt;b3ef91ed&#45;cd17&#45;4689&#45;ab31&#45;5e2b5eb8e5d5 -->
<g id="edge7" class="edge">
<title>f3fec215&#45;5958&#45;446b&#45;87f2&#45;c2ff55c63fdc&#45;&gt;b3ef91ed&#45;cd17&#45;4689&#45;ab31&#45;5e2b5eb8e5d5</title>
<path fill="none" stroke="black" stroke-dasharray="5,2" d="M1242.5,-72.72C1242.5,-64.27 1242.5,-54.89 1242.5,-46.36"/>
<polygon fill="black" stroke="black" points="1246,-46.15 1242.5,-36.15 1239,-46.15 1246,-46.15"/>
</g>
<!-- 6d95ff53&#45;64a0&#45;4327&#45;b08d&#45;bec194bcab1e&#45;&gt;end -->
<g id="edge11" class="edge">
<title>6d95ff53&#45;64a0&#45;4327&#45;b08d&#45;bec194bcab1e&#45;&gt;end</title>
<path fill="none" stroke="black" d="M1765.53,-99.87C1785.66,-99.87 1802.55,-99.87 1812.82,-99.87"/>
<polygon fill="black" stroke="black" points="1812.87,-103.37 1822.87,-99.87 1812.87,-96.37 1812.87,-103.37"/>
<text text-anchor="middle" x="1794.17" y="-106.67" font-family="Helvetica,sans-Serif" font-size="14.00">Finish</text>
</g>
<!-- 4bdb6fdc&#45;ae84&#45;43af&#45;86dd&#45;2c3b34740267 -->
<g id="node12" class="node">
<title>4bdb6fdc&#45;ae84&#45;43af&#45;86dd&#45;2c3b34740267</title>
<polygon fill="white" stroke="black" points="1857,-36 1406,-36 1406,0 1857,0 1857,-36"/>
<text text-anchor="middle" x="1631.5" y="-14.3" font-family="Helvetica,sans-Serif" font-size="14.00">▶ Run GitHub Actions for `cognosis/.github/workflows/ci.yaml`</text>
</g>
<!-- 6d95ff53&#45;64a0&#45;4327&#45;b08d&#45;bec194bcab1e&#45;&gt;4bdb6fdc&#45;ae84&#45;43af&#45;86dd&#45;2c3b34740267 -->
<g id="edge9" class="edge">
<title>6d95ff53&#45;64a0&#45;4327&#45;b08d&#45;bec194bcab1e&#45;&gt;4bdb6fdc&#45;ae84&#45;43af&#45;86dd&#45;2c3b34740267</title>
<path fill="none" stroke="black" stroke-dasharray="5,2" d="M1597.87,-72.72C1603.51,-63.71 1609.82,-53.64 1615.43,-44.67"/>
<polygon fill="black" stroke="black" points="1618.43,-46.48 1620.77,-36.15 1612.49,-42.77 1618.43,-46.48"/>
</g>
</g>
</svg>
